<?xml version="1.0" encoding="UTF-8"?>
<svg version="1.1" xmlns="http://www.w3.org/2000/svg" width="225" height="225">
<path d="M0 0 C74.25 0 148.5 0 225 0 C225 74.25 225 148.5 225 225 C150.75 225 76.5 225 0 225 C0 150.75 0 76.5 0 0 Z " fill="#013567" transform="translate(0,0)"/>
<path d="M0 0 C0.83176758 0.37954834 1.66353516 0.75909668 2.52050781 1.15014648 C4.44948819 2.03053804 6.37746918 2.91312115 8.3046875 3.79736328 C12.3347785 5.64277485 16.37009447 7.47649368 20.40625 9.30859375 C26.3499589 12.00691951 32.29294086 14.70682487 38.234375 17.41015625 C38.89280396 17.7097374 39.55123291 18.00931854 40.22961426 18.31797791 C41.73642899 19.00360912 43.24321775 19.68929742 44.75 20.375 C44.85236081 27.52412527 44.92186409 34.673058 44.96972656 41.82275391 C44.98970309 44.24925803 45.01689383 46.67571489 45.05175781 49.10205078 C45.41475212 75.03479108 45.41475212 75.03479108 40.75 86.375 C40.4523877 87.1474707 40.15477539 87.91994141 39.84814453 88.71582031 C39.0405279 90.67724112 38.15682251 92.55145783 37.1875 94.4375 C36.84944336 95.09959473 36.51138672 95.76168945 36.16308594 96.44384766 C26.37160148 114.75787531 10.2139587 126.70042215 -8.70703125 134.37109375 C-16.45190385 136.28139693 -24.82348101 130.22532883 -31.25 126.375 C-49.05976941 115.03161386 -61.991028 97.98448485 -67.25 77.375 C-68.38087012 71.15495388 -68.37845188 65.06400616 -68.34765625 58.75390625 C-68.3462413 57.65400864 -68.34482635 56.55411102 -68.34336853 55.42088318 C-68.33779503 51.92639383 -68.32524739 48.43196981 -68.3125 44.9375 C-68.30748158 42.5605478 -68.30291927 40.1835946 -68.29882812 37.80664062 C-68.28783428 31.99607166 -68.27112262 26.1855405 -68.25 20.375 C-57.91337947 15.0876475 -47.49412868 10.1721774 -36.8125 5.625 C-34.87732109 4.79574171 -32.9427212 3.96515017 -31.00839233 3.13391113 C-29.18329441 2.35144267 -27.35559937 1.57504064 -25.52783203 0.79882812 C-22.69888654 -0.43001219 -19.93001928 -1.73951386 -17.15234375 -3.078125 C-10.72187774 -5.90619114 -5.97756351 -2.76545368 0 0 Z " fill="#FBFBF9" transform="translate(124.25,47.625)"/>
<path d="M0 0 C1.46015291 0.28241641 2.91809793 0.57626614 4.375 0.875 C5.18710938 1.03742187 5.99921875 1.19984375 6.8359375 1.3671875 C9 2 9 2 11 4 C11 4.99 11 5.98 11 7 C12.918125 7.4640625 12.918125 7.4640625 14.875 7.9375 C17.10101675 8.47605244 18.94739999 8.9737 21 10 C21 11.98 21 13.96 21 16 C20.01 16.495 20.01 16.495 19 17 C19.495 17.99 19.495 17.99 20 19 C20.039992 20.99960012 20.04346799 23.00047242 20 25 C19.01 25.495 19.01 25.495 18 26 C18.99 27.98 19.98 29.96 21 32 C25.55201513 31.45809344 29.24450792 30.70744778 33 28 C33.83531139 25.2374669 33.90409631 22.92506247 34 20 C35.65 19.67 37.3 19.34 39 19 C40.33583899 23.84241633 41.25328119 27.93437617 41 33 C40.13375 33.391875 39.2675 33.78375 38.375 34.1875 C34.72809452 36.14602331 32.11902296 38.29684677 29 41 C28.01 41.66 27.02 42.32 26 43 C25.67 43.99 25.34 44.98 25 46 C27.64 46.66 30.28 47.32 33 48 C33.66 46.68 34.32 45.36 35 44 C36.32 44 37.64 44 39 44 C38.67 48.29 38.34 52.58 38 57 C31.40962648 57.30892376 27.04564605 56.63810009 21 54 C20.34 54.66 19.68 55.32 19 56 C17.27224725 56.7497795 15.54381532 57.49814031 13.80859375 58.23046875 C9.69101051 59.98244261 7.52797493 61.04182328 5.3125 65.0625 C4.18481694 68.01953557 3.60629878 70.94972077 3.0625 74.0625 C2.2300459 78.52255896 1.00735534 81.49141877 -2 85 C-3.03125 85.5775 -4.0625 86.155 -5.125 86.75 C-8.96467291 89.75496141 -9.0844337 92.27870708 -9.7734375 96.953125 C-9.84820312 97.62859375 -9.92296875 98.3040625 -10 99 C-8.35 99 -6.7 99 -5 99 C-4.67 100.65 -4.34 102.3 -4 104 C-4.66 104 -5.32 104 -6 104 C-6.33 104.99 -6.66 105.98 -7 107 C-10.3 106.67 -13.6 106.34 -17 106 C-16.91262287 103.43593328 -16.80570881 100.87517784 -16.6875 98.3125 C-16.66494141 97.59126953 -16.64238281 96.87003906 -16.61914062 96.12695312 C-16.38654777 91.49624081 -15.49394016 88.97969174 -13 85 C-12.6405114 82.10586697 -12.6405114 82.10586697 -12.8125 79.1875 C-12.83957031 78.21167969 -12.86664063 77.23585938 -12.89453125 76.23046875 C-12.94673828 75.12638672 -12.94673828 75.12638672 -13 74 C-13.556875 74.16242188 -14.11375 74.32484375 -14.6875 74.4921875 C-17.19228372 75.04222447 -19.437481 75.13281256 -22 75.125 C-23.2684375 75.12886719 -23.2684375 75.12886719 -24.5625 75.1328125 C-30.22652393 74.82419581 -30.22652393 74.82419581 -32.66796875 72.22265625 C-33.16941406 71.50980469 -33.67085938 70.79695313 -34.1875 70.0625 C-34.69667969 69.35222656 -35.20585938 68.64195313 -35.73046875 67.91015625 C-39.00807656 62.97861711 -38.64174626 57.76161198 -38 52 C-36.22199067 47.21516408 -34.26869328 43.84579552 -30 41 C-25.11483856 40.28792562 -21.1899265 40.27147357 -16.9375 42.875 C-14.39077965 45.66817716 -14.03411232 46.53948369 -13.75 50.375 C-14.00728936 54.10569574 -14.34660777 55.44866132 -17 58 C-17.66 58 -18.32 58 -19 58 C-19.28875 56.88625 -19.5775 55.7725 -19.875 54.625 C-20.69241329 50.99708908 -20.69241329 50.99708908 -23 49 C-22.625 45.875 -22.625 45.875 -22 43 C-26.60953844 43.13239849 -26.60953844 43.13239849 -30.54296875 45.296875 C-34.47322083 49.95324403 -35.34669939 53.75596191 -35.2890625 59.64453125 C-34.81207396 63.53134327 -33.26896117 65.82345437 -31 69 C-27.89013793 71.07324138 -27.10891613 71.27392186 -23.5625 71.25 C-22.80066406 71.25515625 -22.03882812 71.2603125 -21.25390625 71.265625 C-18.68687697 70.96309815 -17.11830882 70.49031461 -15 69 C-14.34060358 67.08501035 -14.34060358 67.08501035 -14.1875 64.875 C-13.18138363 59.16136669 -10.03635648 55.96971852 -6 52 C-3.73160017 50.16734675 -3.73160017 50.16734675 -3.8125 47.4375 C-3.72996677 45.05310277 -3.72996677 45.05310277 -5 44 C-5.14115161 41.32941149 -5.04247107 38.67567762 -5 36 C-6.32 36 -7.64 36 -9 36 C-8.98839844 35.443125 -8.97679688 34.88625 -8.96484375 34.3125 C-8.90323567 29.10221657 -9.25000656 24.1562049 -10 19 C-10.99 19.33 -11.98 19.66 -13 20 C-12.88707154 15.3801993 -12.72086397 11.3191368 -9.8125 7.5625 C-6.86400807 4.87609624 -4.76119911 4.11126337 -1 3 C-0.67 2.01 -0.34 1.02 0 0 Z " fill="#D2AF3A" transform="translate(111,59)"/>
<path d="M0 0 C3.98582498 1.50395765 7.98476915 2.82453819 12.0625 4.0625 C13.18785156 4.40667969 14.31320313 4.75085938 15.47265625 5.10546875 C16.30667969 5.35941406 17.14070313 5.61335937 18 5.875 C19.20366451 28.43256449 19.20366451 28.43256449 12 37.875 C9.52934635 40.55274548 6.96240844 42.76251332 4 44.875 C3.13375 45.535 2.2675 46.195 1.375 46.875 C-2.04637188 48.31557764 -3.46388544 48.09903965 -7 46.875 C-13.67377106 42.81792335 -18.30698037 37.72827577 -22 30.875 C-22.57041016 29.82119141 -22.57041016 29.82119141 -23.15234375 28.74609375 C-24.44371966 24.37207856 -24.20827806 20.09474852 -24.125 15.5625 C-24.11597656 14.63115234 -24.10695312 13.69980469 -24.09765625 12.74023438 C-24.07418263 10.4515564 -24.04134729 8.16341328 -24 5.875 C-22.97519531 5.53726563 -21.95039063 5.19953125 -20.89453125 4.8515625 C-19.53382737 4.4011226 -18.17315178 3.95059724 -16.8125 3.5 C-16.13896484 3.27828125 -15.46542969 3.0565625 -14.77148438 2.828125 C-11.87399808 1.8670076 -9.04662685 0.89601867 -6.26171875 -0.359375 C-3.5627678 -1.27300952 -2.60823926 -1.04940877 0 0 Z " fill="#414851" transform="translate(195,165.125)"/>
<path d="M0 0 C1.32 0 2.64 0 4 0 C5.33583899 4.84241633 6.25328119 8.93437617 6 14 C4.700625 14.5878125 4.700625 14.5878125 3.375 15.1875 C-0.27190548 17.14602331 -2.88097704 19.29684677 -6 22 C-6.99 22.66 -7.98 23.32 -9 24 C-9.495 25.485 -9.495 25.485 -10 27 C-7.36 27.66 -4.72 28.32 -2 29 C-1.34 27.68 -0.68 26.36 0 25 C1.32 25 2.64 25 4 25 C3.67 29.29 3.34 33.58 3 38 C-1.95274284 38.23215982 -5.72421346 38.3364709 -10.3125 36.375 C-13.76949995 34.6109107 -13.76949995 34.6109107 -16.23046875 35.9140625 C-17.10638672 36.45160156 -17.10638672 36.45160156 -18 37 C-17.57847656 36.38511719 -17.15695313 35.77023438 -16.72265625 35.13671875 C-16.17480469 34.32847656 -15.62695312 33.52023438 -15.0625 32.6875 C-14.51722656 31.88699219 -13.97195312 31.08648437 -13.41015625 30.26171875 C-11.86162674 27.9741857 -11.86162674 27.9741857 -11 25 C-11.886875 24.896875 -12.77375 24.79375 -13.6875 24.6875 C-20.52782683 23.71833665 -27.44706765 22.18431078 -34 20 C-36.12046792 23.53411321 -36.53199289 26.94393835 -37 31 C-37.33 31 -37.66 31 -38 31 C-39.97094808 26.07262981 -40.1799928 22.21979128 -40 17 C-41.32 17 -42.64 17 -44 17 C-43.67 15.68 -43.34 14.36 -43 13 C-43 13.99 -43 14.98 -43 16 C-41.68 15.67 -40.36 15.34 -39 15 C-38.67 17.64 -38.34 20.28 -38 23 C-36.68 20.69 -35.36 18.38 -34 16 C-33.01 16 -32.02 16 -31 16 C-30.67 16.99 -30.34 17.98 -30 19 C-29.01 19.33 -28.02 19.66 -27 20 C-26.855625 19.195625 -26.71125 18.39125 -26.5625 17.5625 C-26 15 -26 15 -25 14 C-23.48071962 13.92820036 -21.95832518 13.91607993 -20.4375 13.9375 C-19.61121094 13.94652344 -18.78492187 13.95554687 -17.93359375 13.96484375 C-17.29550781 13.97644531 -16.65742188 13.98804687 -16 14 C-15.67 12.68 -15.34 11.36 -15 10 C-14.67 10.99 -14.34 11.98 -14 13 C-9.44798487 12.45809344 -5.75549208 11.70744778 -2 9 C-1.20994418 6.27321014 -1.13882328 3.86901447 -1 1 C-0.67 0.67 -0.34 0.34 0 0 Z " fill="#D8C36F" transform="translate(146,78)"/>
<path d="M0 0 C1.19496094 -0.00386719 1.19496094 -0.00386719 2.4140625 -0.0078125 C4.375 0.125 4.375 0.125 5.375 1.125 C5.58377927 6.24009204 5.08369772 11.07552873 4.375 16.125 C9.55132574 16.42948975 12.04928245 15.85703214 16.375 13.125 C19.1875 12.9375 19.1875 12.9375 21.375 13.125 C21.87 14.61 21.87 14.61 22.375 16.125 C21.715 16.125 21.055 16.125 20.375 16.125 C20.045 18.105 19.715 20.085 19.375 22.125 C12.01012596 23.12362699 4.80186315 23.22831031 -2.625 23.125 C-2.955 19.825 -3.285 16.525 -3.625 13.125 C-5.935 12.795 -8.245 12.465 -10.625 12.125 C-9.875 4.5 -9.875 4.5 -7.625 1.125 C-4.78285932 0.17761977 -2.94891609 -0.00960559 0 0 Z " fill="#D2AE39" transform="translate(126.625,119.875)"/>
<path d="M0 0 C2.93423195 1.79646854 4.47205355 2.9441071 6 6 C6.45833333 12.1875 6.45833333 12.1875 4.625 15.4375 C3 17 3 17 1 17 C0.71125 15.88625 0.4225 14.7725 0.125 13.625 C-0.69241329 9.99708908 -0.69241329 9.99708908 -3 8 C-2.625 4.875 -2.625 4.875 -2 2 C-6.60953844 2.13239849 -6.60953844 2.13239849 -10.54296875 4.296875 C-14.47322083 8.95324403 -15.34669939 12.75596191 -15.2890625 18.64453125 C-14.81207396 22.53134327 -13.26896117 24.82345437 -11 28 C-7.89013793 30.07324138 -7.10891613 30.27392186 -3.5625 30.25 C-2.80066406 30.25515625 -2.03882812 30.2603125 -1.25390625 30.265625 C1.21443018 29.9747292 2.857686 29.22975656 5 28 C5 28.66 5 29.32 5 30 C6.32 30.33 7.64 30.66 9 31 C9 35.29 9 39.58 9 44 C8.67 44 8.34 44 8 44 C7.67 40.37 7.34 36.74 7 33 C5.02 33.495 5.02 33.495 3 34 C1.3352819 34.09070579 -0.33282033 34.13008286 -2 34.125 C-3.2684375 34.12886719 -3.2684375 34.12886719 -4.5625 34.1328125 C-10.22652393 33.82419581 -10.22652393 33.82419581 -12.66796875 31.22265625 C-13.42013672 30.15337891 -13.42013672 30.15337891 -14.1875 29.0625 C-14.69667969 28.35222656 -15.20585938 27.64195313 -15.73046875 26.91015625 C-19.00807656 21.97861711 -18.64174626 16.76161198 -18 11 C-14.56419409 1.75383507 -9.78708227 -1.31118806 0 0 Z " fill="#D3BA60" transform="translate(91,100)"/>
<path d="M0 0 C1.32 0 2.64 0 4 0 C5.33583899 4.84241633 6.25328119 8.93437617 6 14 C4.700625 14.5878125 4.700625 14.5878125 3.375 15.1875 C-0.26153714 17.14045513 -2.88700534 19.31150461 -6 22 C-10.2382509 24.11912545 -15.11812346 23.25196473 -19.5 22 C-20.325 21.67 -21.15 21.34 -22 21 C-22 20.67 -22 20.34 -22 20 C-18.7 20 -15.4 20 -12 20 C-12 18.68 -12 17.36 -12 16 C-9.79385127 13.19988814 -8.15416451 12.06045667 -4.8125 10.75 C-1.87173016 9.35226958 -1.87173016 9.35226958 -1.4296875 7.0703125 C-1.20725225 5.05404454 -1.09803854 3.0261299 -1 1 C-0.67 0.67 -0.34 0.34 0 0 Z " fill="#D1B03E" transform="translate(146,78)"/>
<path d="M0 0 C2.31 0.66 4.62 1.32 7 2 C6.67 3.65 6.34 5.3 6 7 C5.34 7 4.68 7 4 7 C4 8.32 4 9.64 4 11 C3.34 11 2.68 11 2 11 C1.87882812 11.60328125 1.75765625 12.2065625 1.6328125 12.828125 C1.46523437 13.62734375 1.29765625 14.4265625 1.125 15.25 C0.96257812 16.03890625 0.80015625 16.8278125 0.6328125 17.640625 C0 20 0 20 -2 24 C-1.67 19.05 -1.34 14.1 -1 9 C-4.96 9 -8.92 9 -13 9 C-13.99 12.63 -14.98 16.26 -16 20 C-13.69 20.33 -11.38 20.66 -9 21 C-8.67 23.97 -8.34 26.94 -8 30 C-8.33 30 -8.66 30 -9 30 C-9.33 27.36 -9.66 24.72 -10 22 C-13.43230448 22.26393501 -13.43230448 22.26393501 -17 23 C-17.66 23.99 -18.32 24.98 -19 26 C-18.72993561 19.41042882 -18.1675361 13.34635346 -14 8 C-10.09396542 4.78855316 -5.73616899 2.72224327 -1 1 C-0.67 0.67 -0.34 0.34 0 0 Z " fill="#F9F8ED" transform="translate(132,112)"/>
<path d="M0 0 C1 3 1 3 1 4 C1.99 4 2.98 4 4 4 C3.67 7.3 3.34 10.6 3 14 C4.65 14 6.3 14 8 14 C8.33 15.65 8.66 17.3 9 19 C8.34 19 7.68 19 7 19 C6.67 19.99 6.34 20.98 6 22 C2.7 21.67 -0.6 21.34 -4 21 C-3.91262287 18.43593328 -3.80570881 15.87517784 -3.6875 13.3125 C-3.66494141 12.59126953 -3.64238281 11.87003906 -3.61914062 11.12695312 C-3.39321663 6.62901178 -2.75062688 3.73878775 0 0 Z " fill="#D1B249" transform="translate(98,144)"/>
<path d="M0 0 C1.65 0 3.3 0 5 0 C5 7.92 5 15.84 5 24 C3.35 24 1.7 24 0 24 C0 16.08 0 8.16 0 0 Z " fill="#E4C354" transform="translate(200,175)"/>
<path d="M0 0 C0.66 0 1.32 0 2 0 C2.21894342 7.47429513 2.4138719 14.94893886 2.59204102 22.42431641 C2.65550525 24.96775512 2.72448534 27.51106238 2.79907227 30.05419922 C2.9052734 33.70780319 2.99168871 37.36141926 3.07421875 41.015625 C3.11157639 42.15429016 3.14893402 43.29295532 3.18742371 44.46612549 C3.20767105 45.52692322 3.2279184 46.58772095 3.2487793 47.68066406 C3.27320602 48.61332092 3.29763275 49.54597778 3.32279968 50.50689697 C3 53 3 53 0 57 C0 38.19 0 19.38 0 0 Z " fill="#375576" transform="translate(169,68)"/>
<path d="M0 0 C1.98 0 3.96 0 6 0 C6 5.94 6 11.88 6 18 C4.02 18 2.04 18 0 18 C0 12.06 0 6.12 0 0 Z " fill="#CCB254" transform="translate(192,181)"/>
<path d="M0 0 C0.66 0.99 1.32 1.98 2 3 C7.1708859 3.58538331 9.7034739 2.71359543 14 0 C16.8125 -0.1875 16.8125 -0.1875 19 0 C19.33 0.99 19.66 1.98 20 3 C19.34 3 18.68 3 18 3 C17.67 4.98 17.34 6.96 17 9 C9.63512596 9.99862699 2.42686315 10.10331031 -5 10 C-5 9.67 -5 9.34 -5 9 C-2.36 9 0.28 9 3 9 C3 8.34 3 7.68 3 7 C4.32 6.67 5.64 6.34 7 6 C4.69 5.34 2.38 4.68 0 4 C0 2.68 0 1.36 0 0 Z " fill="#D3B856" transform="translate(129,133)"/>
<path d="M0 0 C1.19496094 -0.00386719 1.19496094 -0.00386719 2.4140625 -0.0078125 C4.375 0.125 4.375 0.125 5.375 1.125 C5.73397436 7.58653846 5.73397436 7.58653846 3.375 11.125 C3.375 8.485 3.375 5.845 3.375 3.125 C1.725 2.795 0.075 2.465 -1.625 2.125 C-1.955 2.785 -2.285 3.445 -2.625 4.125 C-1.305 4.455 0.015 4.785 1.375 5.125 C-1.6204928 7.70445213 -3.76851301 9.29860993 -7.625 10.125 C-7.955 10.785 -8.285 11.445 -8.625 12.125 C-9.285 12.125 -9.945 12.125 -10.625 12.125 C-9.875 4.5 -9.875 4.5 -7.625 1.125 C-4.78285932 0.17761977 -2.94891609 -0.00960559 0 0 Z " fill="#D3AF3D" transform="translate(126.625,119.875)"/>
<path d="M0 0 C0.680625 0.680625 1.36125 1.36125 2.0625 2.0625 C2.52527344 2.52011719 2.98804687 2.97773438 3.46484375 3.44921875 C4.49895655 4.49385687 5.51193076 5.55979961 6.50390625 6.64453125 C11.35909287 11.82729672 16.91840187 15.38183402 23 19 C19.75778445 20.08073852 17.39597063 20.21676408 14 20 C13.34 19.34 12.68 18.68 12 18 C11.01 18 10.02 18 9 18 C9.33 16.02 9.66 14.04 10 12 C8.68 12 7.36 12 6 12 C5.67 10.68 5.34 9.36 5 8 C4.34 8 3.68 8 3 8 C0 2.25 0 2.25 0 0 Z " fill="#143966" transform="translate(72,155)"/>
<path d="M0 0 C2.375 0.3125 2.375 0.3125 5 1 C7.47342266 4.71013399 7.38503486 6.61060262 7 11 C5.625 13.4375 5.625 13.4375 4 15 C3.34 15 2.68 15 2 15 C0.2520497 9.75614911 -0.19392201 5.52677733 0 0 Z " fill="#D2B03D" transform="translate(90,102)"/>
<path d="M0 0 C0.33 0.99 0.66 1.98 1 3 C2.32 2.67 3.64 2.34 5 2 C5.33 4.64 5.66 7.28 6 10 C7.32 7.69 8.64 5.38 10 3 C10.99 3 11.98 3 13 3 C13.33 3.99 13.66 4.98 14 6 C14.99 6.33 15.98 6.66 17 7 C17.144375 6.195625 17.28875 5.39125 17.4375 4.5625 C18 2 18 2 19 1 C21.67058851 0.85884839 24.32432238 0.95752893 27 1 C26.67 1.66 26.34 2.32 26 3 C24.35 3 22.7 3 21 3 C20.34 4.98 19.68 6.96 19 9 C15.87709365 8.51421457 13.00419641 8.0013988 10 7 C7.87953208 10.53411321 7.46800711 13.94393835 7 18 C6.67 18 6.34 18 6 18 C4.02905192 13.07262981 3.8200072 9.21979128 4 4 C2.68 4 1.36 4 0 4 C0 2.68 0 1.36 0 0 Z " fill="#E5D595" transform="translate(102,91)"/>
<path d="M0 0 C3.3 0.66 6.6 1.32 10 2 C10 1.34 10 0.68 10 0 C10.66 0.33 11.32 0.66 12 1 C11.67 3.31 11.34 5.62 11 8 C5.73946963 8.31563182 2.55426184 7.66590937 -2 5 C-1.34 3.35 -0.68 1.7 0 0 Z " fill="#D1B03E" transform="translate(137,107)"/>
<path d="M0 0 C0.66 0.33 1.32 0.66 2 1 C2 2.32 2 3.64 2 5 C-2.455 5.495 -2.455 5.495 -7 6 C-7.99 9.63 -8.98 13.26 -10 17 C-7.69 17.33 -5.38 17.66 -3 18 C-2.67 20.97 -2.34 23.94 -2 27 C-2.33 27 -2.66 27 -3 27 C-3.33 24.36 -3.66 21.72 -4 19 C-7.43230448 19.26393501 -7.43230448 19.26393501 -11 20 C-11.66 20.99 -12.32 21.98 -13 23 C-12.73008378 16.41404426 -12.17078249 10.34049203 -8 5 C-5.51888887 2.93650163 -3.00960704 1.19211708 0 0 Z " fill="#E8DA9B" transform="translate(126,115)"/>
<path d="M0 0 C0.87785156 -0.00515625 1.75570312 -0.0103125 2.66015625 -0.015625 C4.9375 0.25 4.9375 0.25 6.9375 2.25 C5.9475 2.25 4.9575 2.25 3.9375 2.25 C3.9375 4.56 3.9375 6.87 3.9375 9.25 C3.2775 8.92 2.6175 8.59 1.9375 8.25 C2.2675 6.27 2.5975 4.29 2.9375 2.25 C-1.57558656 2.42698379 -3.52564173 2.72534305 -6.8125 5.9375 C-8.95112522 8.85252382 -10.57219316 11.95563751 -12.0625 15.25 C-13.02750434 12.67273231 -13.18648584 11.56866536 -12.171875 8.9609375 C-11.49898438 7.80464844 -11.49898438 7.80464844 -10.8125 6.625 C-10.37421875 5.84898438 -9.9359375 5.07296875 -9.484375 4.2734375 C-6.81526589 0.47508992 -4.39119511 -0.0258686 0 0 Z " fill="#D4C374" transform="translate(86.0625,99.75)"/>
<path d="M0 0 C1.65 0 3.3 0 5 0 C5 3.96 5 7.92 5 12 C3.35 12 1.7 12 0 12 C0 8.04 0 4.08 0 0 Z " fill="#D9BC54" transform="translate(185,187)"/>
<path d="M0 0 C0.66 0.33 1.32 0.66 2 1 C1.67 3.64 1.34 6.28 1 9 C2.65 9 4.3 9 6 9 C6.33 10.65 6.66 12.3 7 14 C6.34 14 5.68 14 5 14 C4.67 14.99 4.34 15.98 4 17 C0.535 15.02 0.535 15.02 -3 13 C-1.68 12.34 -0.36 11.68 1 11 C0.67 10.67 0.34 10.34 0 10 C-0.07205511 8.31391034 -0.08386068 6.62499341 -0.0625 4.9375 C-0.05347656 4.01839844 -0.04445313 3.09929687 -0.03515625 2.15234375 C-0.02355469 1.44207031 -0.01195313 0.73179687 0 0 Z " fill="#D6BF6A" transform="translate(100,149)"/>
<path d="M0 0 C1.32 0 2.64 0 4 0 C5.33583899 4.84241633 6.25328119 8.93437617 6 14 C5.67 13.01 5.34 12.02 5 11 C4.01 11 3.02 11 2 11 C1.67 9.35 1.34 7.7 1 6 C0.67 7.32 0.34 8.64 0 10 C-0.66 9.67 -1.32 9.34 -2 9 C-1.125 1.125 -1.125 1.125 0 0 Z " fill="#D5BD67" transform="translate(146,78)"/>
<path d="M0 0 C1.81325551 0.11351517 3.62563357 0.24112961 5.4375 0.375 C6.95150391 0.47941406 6.95150391 0.47941406 8.49609375 0.5859375 C9.73552734 0.79089844 9.73552734 0.79089844 11 1 C11.33 1.66 11.66 2.32 12 3 C14.32156597 3.40729228 16.6568787 3.74438677 19 4 C19 3.34 19 2.68 19 2 C20.65 2 22.3 2 24 2 C20.9140684 5.0859316 17.80458715 5.82885034 13.59375 6.21484375 C8.61334629 5.80231031 4.33961629 3.34420394 0 1 C0 0.67 0 0.34 0 0 Z " fill="#CFDBDF" transform="translate(98,176)"/>
<path d="M0 0 C0.33 0 0.66 0 1 0 C1.38897161 1.62171239 1.76078298 3.24754925 2.125 4.875 C2.33382812 5.77992187 2.54265625 6.68484375 2.7578125 7.6171875 C2.83773437 8.40351562 2.91765625 9.18984375 3 10 C2.34 10.66 1.68 11.32 1 12 C1 11.34 1 10.68 1 10 C0.34 10 -0.32 10 -1 10 C-1.33 10.99 -1.66 11.98 -2 13 C-3.32 12.67 -4.64 12.34 -6 12 C-6 10.02 -6 8.04 -6 6 C-6.99 5.67 -7.98 5.34 -9 5 C-8.67 3.68 -8.34 2.36 -8 1 C-5.90250005 3.35968744 -5.03094296 4.54616994 -4.8125 7.75 C-4.874375 8.4925 -4.93625 9.235 -5 10 C-1.32769295 6.92000054 -0.43197635 4.7517398 0 0 Z " fill="#F5F1D9" transform="translate(97,107)"/>
<path d="M0 0 C4.29 0.66 8.58 1.32 13 2 C12.67 3.32 12.34 4.64 12 6 C12.66 6.33 13.32 6.66 14 7 C13.34 7 12.68 7 12 7 C11.87625 7.598125 11.7525 8.19625 11.625 8.8125 C11 11 11 11 9 14 C6.375 15.1875 6.375 15.1875 4 16 C4.42152344 15.38511719 4.84304687 14.77023438 5.27734375 14.13671875 C6.09912109 12.92435547 6.09912109 12.92435547 6.9375 11.6875 C7.75541016 10.48673828 7.75541016 10.48673828 8.58984375 9.26171875 C10.13837326 6.9741857 10.13837326 6.9741857 11 4 C9.9275 3.87625 8.855 3.7525 7.75 3.625 C4.62136385 3.10356064 2.66519576 2.59911746 0 1 C0 0.67 0 0.34 0 0 Z " fill="#EADEA9" transform="translate(124,99)"/>
<path d="M0 0 C2.4375 0.375 2.4375 0.375 5 1 C6.35439668 3.70879335 6.06501451 6.00933268 6 9 C5.01 9.495 5.01 9.495 4 10 C4 10.99 4 11.98 4 13 C1.69 12.01 -0.62 11.02 -3 10 C-3 9.34 -3 8.68 -3 8 C-0.36 7.67 2.28 7.34 5 7 C5 6.01 5 5.02 5 4 C3.35 4.33 1.7 4.66 0 5 C0 3.35 0 1.7 0 0 Z " fill="#DCCA7D" transform="translate(125,75)"/>
<path d="M0 0 C1.32 0.66 2.64 1.32 4 2 C1.87717331 3.00460531 -0.24833021 4.00355602 -2.375 5 C-4.15003906 5.8353125 -4.15003906 5.8353125 -5.9609375 6.6875 C-9 8 -9 8 -11 8 C-10.67 6.35 -10.34 4.7 -10 3 C-9.04287109 2.80083984 -9.04287109 2.80083984 -8.06640625 2.59765625 C-7.24011719 2.42105469 -6.41382812 2.24445312 -5.5625 2.0625 C-4.73878906 1.88847656 -3.91507812 1.71445312 -3.06640625 1.53515625 C-1.02338796 1.19247006 -1.02338796 1.19247006 0 0 Z " fill="#133A69" transform="translate(91,49)"/>
<path d="M0 0 C0.33 0 0.66 0 1 0 C1.09796875 0.72445312 1.1959375 1.44890625 1.296875 2.1953125 C2.21692754 8.14392808 3.18992735 12.3009104 7 17 C6.01 17 5.02 17 4 17 C0.72056928 13.3347539 -1.1430633 10.91321757 -1.125 6 C-1.12886719 4.948125 -1.12886719 4.948125 -1.1328125 3.875 C-1 2 -1 2 0 0 Z " fill="#D2B95D" transform="translate(74,113)"/>
<path d="M0 0 C4.75 0.875 4.75 0.875 7 2 C7 3.98 7 5.96 7 8 C4.125 8.125 4.125 8.125 1 8 C0.34 7.34 -0.32 6.68 -1 6 C-0.34 5.67 0.32 5.34 1 5 C1.65213292 2.97536745 1.65213292 2.97536745 2 1 C1.34 0.67 0.68 0.34 0 0 Z " fill="#D2B74F" transform="translate(125,67)"/>
<path d="M0 0 C1.65 0 3.3 0 5 0 C5 2.31 5 4.62 5 7 C3.35 7 1.7 7 0 7 C0 4.69 0 2.38 0 0 Z " fill="#DCBE55" transform="translate(178,192)"/>
<path d="M0 0 C0.33 0.99 0.66 1.98 1 3 C0.01 3.33 -0.98 3.66 -2 4 C-1.87625 5.1446875 -1.87625 5.1446875 -1.75 6.3125 C-2 9 -2 9 -3.75 10.875 C-6 12 -6 12 -10 11 C-6.7 7.37 -3.4 3.74 0 0 Z " fill="#214368" transform="translate(153,154)"/>
<path d="M0 0 C0.33 0.66 0.66 1.32 1 2 C1.66 2.33 2.32 2.66 3 3 C0.51047079 5.66735273 -1.63408134 7.55746343 -5 9 C-4.75 5.625 -4.75 5.625 -4 2 C-1.9375 0.5625 -1.9375 0.5625 0 0 Z " fill="#D2B345" transform="translate(107,139)"/>
<path d="M0 0 C1.2380014 3.57644848 0.74926071 6.33694766 0 10 C-0.66 10 -1.32 10 -2 10 C-2.04125 10.61875 -2.0825 11.2375 -2.125 11.875 C-2.41375 12.57625 -2.7025 13.2775 -3 14 C-6.0625 15.25 -6.0625 15.25 -9 16 C-8.04882866 14.8274869 -7.08882991 13.66212985 -6.125 12.5 C-5.59132813 11.8503125 -5.05765625 11.200625 -4.5078125 10.53125 C-3.76144531 9.77328125 -3.76144531 9.77328125 -3 9 C-2.34 9 -1.68 9 -1 9 C-1.020625 7.88625 -1.04125 6.7725 -1.0625 5.625 C-1 2 -1 2 0 0 Z " fill="#D2BC69" transform="translate(110,100)"/>
<path d="M0 0 C0.33 0.99 0.66 1.98 1 3 C-0.2065625 4.0828125 -0.2065625 4.0828125 -1.4375 5.1875 C-4.02292072 8.02515689 -4.68042813 9.27166147 -5 13 C-4.01 13.33 -3.02 13.66 -2 14 C-3.32 14 -4.64 14 -6 14 C-6.61514196 6.74132492 -6.61514196 6.74132492 -3.5625 3.0625 C-2.716875 2.381875 -1.87125 1.70125 -1 1 C-0.67 0.67 -0.34 0.34 0 0 Z " fill="#F4EECF" transform="translate(107,144)"/>
<path d="M0 0 C-0.33 1.65 -0.66 3.3 -1 5 C0.32 5.33 1.64 5.66 3 6 C2.67 6.66 2.34 7.32 2 8 C-3.75 7.125 -3.75 7.125 -6 6 C-5.6875 4.125 -5.6875 4.125 -5 2 C-2 0 -2 0 0 0 Z " fill="#F7F5E1" transform="translate(142,99)"/>
<path d="M0 0 C-0.99 0.66 -1.98 1.32 -3 2 C-0.525 2.99 -0.525 2.99 2 4 C-1.01031744 4.93423645 -1.86650268 5.04449911 -5 4 C-5.99 5.485 -5.99 5.485 -7 7 C-9.625 7.6875 -9.625 7.6875 -12 8 C-11 6 -11 6 -8 5 C-7.6278958 3.67696283 -7.29369827 2.34262065 -7 1 C-4.53721199 -0.231394 -2.7204945 -0.07159196 0 0 Z " fill="#EDE2BB" transform="translate(117,56)"/>
<path d="M0 0 C4.455 0.99 4.455 0.99 9 2 C9.33 4.97 9.66 7.94 10 11 C9.67 11 9.34 11 9 11 C8.67 8.36 8.34 5.72 8 3 C4.56769552 3.26393501 4.56769552 3.26393501 1 4 C0.34 4.99 -0.32 5.98 -1 7 C-0.67 4.69 -0.34 2.38 0 0 Z " fill="#EFE5B9" transform="translate(114,131)"/>
<path d="M0 0 C1.66611905 -0.042721 3.33382885 -0.04063832 5 0 C6 1 6 1 6.1875 4.375 C6 8 6 8 4 11 C4 8.36 4 5.72 4 3 C2.68 2.67 1.36 2.34 0 2 C0 1.34 0 0.68 0 0 Z " fill="#D5BB5B" transform="translate(126,120)"/>
<path d="M0 0 C-1.98 0.99 -1.98 0.99 -4 2 C-4 3.32 -4 4.64 -4 6 C-5.98 6 -7.96 6 -10 6 C-9.34 5.67 -8.68 5.34 -8 5 C-8 4.01 -8 3.02 -8 2 C-7.34 2 -6.68 2 -6 2 C-6 1.34 -6 0.68 -6 0 C-2.25 -1.125 -2.25 -1.125 0 0 Z " fill="#D9C270" transform="translate(138,92)"/>
<path d="M0 0 C0.99 0.33 1.98 0.66 3 1 C2.690625 1.78375 2.38125 2.5675 2.0625 3.375 C0.73664193 7.89851578 0.35188915 12.31431814 0 17 C-0.33 17 -0.66 17 -1 17 C-1.02699725 14.72923158 -1.04639453 12.45837179 -1.0625 10.1875 C-1.07990234 8.29064453 -1.07990234 8.29064453 -1.09765625 6.35546875 C-1 3 -1 3 0 0 Z " fill="#F4F5E5" transform="translate(73,104)"/>
<path d="M0 0 C2.97 0 5.94 0 9 0 C9.33 0.99 9.66 1.98 10 3 C5.94568308 4.15837626 3.78187881 3.83691257 0 2 C0 1.34 0 0.68 0 0 Z " fill="#173C6B" transform="translate(118,44)"/>
<path d="M0 0 C2.475 0.99 2.475 0.99 5 2 C3.68775452 5.93673644 2.08089673 8.22719294 -1 11 C-1 10.01 -1 9.02 -1 8 C-0.34 8 0.32 8 1 8 C0.67 5.36 0.34 2.72 0 0 Z " fill="#E6EAEB" transform="translate(153,144)"/>
<path d="M0 0 C3.63 0.33 7.26 0.66 11 1 C11.33 1.99 11.66 2.98 12 4 C7.12335991 4.34833144 4.22949995 3.41685712 0 1 C0 0.67 0 0.34 0 0 Z " fill="#DEE7E7" transform="translate(98,176)"/>
<path d="M0 0 C0.99 0.33 1.98 0.66 3 1 C3.33 3.64 3.66 6.28 4 9 C4.66 9 5.32 9 6 9 C6 10.65 6 12.3 6 14 C3.52813545 11.03653214 2.33751639 8.45958311 1.3125 4.75 C1.06113281 3.85796875 0.80976562 2.9659375 0.55078125 2.046875 C0.36902344 1.37140625 0.18726563 0.6959375 0 0 Z " fill="#D6DFE5" transform="translate(58,127)"/>
<path d="M0 0 C0.99 0.33 1.98 0.66 3 1 C0.51047079 3.66735273 -1.63408134 5.55746343 -5 7 C-4.6189482 4.23737447 -4.16402868 3.15856106 -2.125 1.1875 C-1.42375 0.795625 -0.7225 0.40375 0 0 Z " fill="#E2E8E7" transform="translate(133,169)"/>
<path d="M0 0 C0.33 0.99 0.66 1.98 1 3 C0 4 0 4 -2.28515625 4.09765625 C-3.65994141 4.08025391 -3.65994141 4.08025391 -5.0625 4.0625 C-5.98160156 4.05347656 -6.90070313 4.04445312 -7.84765625 4.03515625 C-8.55792969 4.02355469 -9.26820312 4.01195312 -10 4 C-10 3.34 -10 2.68 -10 2 C-9.04287109 1.90912109 -9.04287109 1.90912109 -8.06640625 1.81640625 C-6.82697266 1.69072266 -6.82697266 1.69072266 -5.5625 1.5625 C-4.73878906 1.48128906 -3.91507812 1.40007812 -3.06640625 1.31640625 C-1.01337975 1.21069185 -1.01337975 1.21069185 0 0 Z " fill="#D4AE40" transform="translate(94,130)"/>
<path d="M0 0 C0.33 0 0.66 0 1 0 C1.36637589 6.35051546 1.36637589 6.35051546 -0.375 9.4375 C-2 11 -2 11 -4 11 C-4 9.35 -4 7.7 -4 6 C-2.68 6 -1.36 6 0 6 C0 4.02 0 2.04 0 0 Z " fill="#D0B958" transform="translate(96,106)"/>
<path d="M0 0 C1.953125 0.6484375 1.953125 0.6484375 4 2 C4.609375 4.6015625 4.609375 4.6015625 4.75 7.625 C4.80671875 8.62789062 4.8634375 9.63078125 4.921875 10.6640625 C4.94765625 11.43492188 4.9734375 12.20578125 5 13 C3.23537317 9.91190305 3 8.76687864 3 5 C2.01 5.33 1.02 5.66 0 6 C0 4.02 0 2.04 0 0 Z " fill="#D9CA86" transform="translate(98,73)"/>
<path d="M0 0 C2 3 2 3 1.7578125 5.48046875 C1.54898438 6.37378906 1.34015625 7.26710938 1.125 8.1875 C0.92132813 9.08855469 0.71765625 9.98960938 0.5078125 10.91796875 C0.34023437 11.60503906 0.17265625 12.29210937 0 13 C-2 9.25 -2 9.25 -2 7 C-2.66 6.67 -3.32 6.34 -4 6 C-2.68 6 -1.36 6 0 6 C0 4.02 0 2.04 0 0 Z " fill="#EFEBCA" transform="translate(132,69)"/>
<path d="M0 0 C2.93200474 2.85276137 5.64315404 5.65079784 8 9 C7.01 9.33 6.02 9.66 5 10 C5 9.34 5 8.68 5 8 C4.34 8 3.68 8 3 8 C0 2.25 0 2.25 0 0 Z " fill="#234468" transform="translate(72,155)"/>
<path d="M0 0 C0.99 0 1.98 0 3 0 C3 4.29 3 8.58 3 13 C2.67 13 2.34 13 2 13 C1.92652344 11.82630859 1.92652344 11.82630859 1.8515625 10.62890625 C1.77679688 9.61699219 1.70203125 8.60507813 1.625 7.5625 C1.55539063 6.55316406 1.48578125 5.54382813 1.4140625 4.50390625 C1.27742188 3.67761719 1.14078125 2.85132813 1 2 C0.34 1.67 -0.32 1.34 -1 1 C-0.67 0.67 -0.34 0.34 0 0 Z " fill="#DBCA86" transform="translate(97,131)"/>
<path d="M0 0 C0.66 0.33 1.32 0.66 2 1 C2 2.32 2 3.64 2 5 C-0.31 5 -2.62 5 -5 5 C-5 4.34 -5 3.68 -5 3 C-2.625 1.3125 -2.625 1.3125 0 0 Z " fill="#EDE5BE" transform="translate(126,115)"/>
<path d="M0 0 C2.09350689 3.4019487 2.17942163 6.05272412 2 10 C1.67 9.01 1.34 8.02 1 7 C0.01 7 -0.98 7 -2 7 C-1.34 4.69 -0.68 2.38 0 0 Z " fill="#CFB852" transform="translate(150,82)"/>
<path d="M0 0 C2.97 0 5.94 0 9 0 C8.34 0.66 7.68 1.32 7 2 C7 2.99 7 3.98 7 5 C4.69 4.01 2.38 3.02 0 2 C0 1.34 0 0.68 0 0 Z " fill="#E8DCA6" transform="translate(122,83)"/>
<path d="M0 0 C1.53445094 3.06890187 0.54984289 5.70094266 0 9 C-0.99 9.33 -1.98 9.66 -3 10 C-3.36923077 4.58461538 -3.36923077 4.58461538 -1.5 1.625 C-1.005 1.08875 -0.51 0.5525 0 0 Z " fill="#CEB557" transform="translate(102,66)"/>
<path d="M0 0 C0.78375 0.04125 1.5675 0.0825 2.375 0.125 C0.395 1.115 0.395 1.115 -1.625 2.125 C-1.625 3.775 -1.625 5.425 -1.625 7.125 C-2.615 7.125 -3.605 7.125 -4.625 7.125 C-4.75 4.75 -4.75 4.75 -4.625 2.125 C-2.625 0.125 -2.625 0.125 0 0 Z " fill="#CFB653" transform="translate(125.625,92.875)"/>
<path d="M0 0 C0.99 0.33 1.98 0.66 3 1 C3 1.66 3 2.32 3 3 C4.65 3 6.3 3 8 3 C8 3.99 8 4.98 8 6 C5.125 5.8125 5.125 5.8125 2 5 C0.625 2.4375 0.625 2.4375 0 0 Z " fill="#F4F0D8" transform="translate(120,61)"/>
<path d="M0 0 C4.05606165 0.46800711 7.46588679 0.87953208 11 3 C11 3.66 11 4.32 11 5 C6.69159287 3.92289822 3.36423277 2.96052484 0 0 Z " fill="#264468" transform="translate(125,48)"/>
<path d="M0 0 C2.5 2.3125 2.5 2.3125 5 5 C5 5.99 5 6.98 5 8 C2.5 6.25 2.5 6.25 0 4 C0 2.68 0 1.36 0 0 Z " fill="#CEB451" transform="translate(75,123)"/>
<path d="M0 0 C1.60031344 3.20062687 0.03173691 5.72271806 -1 9 C-1.66 9 -2.32 9 -3 9 C-2.5020163 5.26512223 -2.12508244 3.18762365 0 0 Z " fill="#D7C06E" transform="translate(100,116)"/>
<path d="M0 0 C1.32 0 2.64 0 4 0 C4 0.66 4 1.32 4 2 C4.99 2.33 5.98 2.66 7 3 C5.02 3.33 3.04 3.66 1 4 C0.67 2.68 0.34 1.36 0 0 Z " fill="#F3F3E3" transform="translate(131,88)"/>
<path d="M0 0 C2.31 0 4.62 0 7 0 C7 0.66 7 1.32 7 2 C5.1875 3.0625 5.1875 3.0625 3 4 C2.01 3.67 1.02 3.34 0 3 C0 2.01 0 1.02 0 0 Z " fill="#F1EFD6" transform="translate(94,165)"/>
<path d="M0 0 C1.65 0 3.3 0 5 0 C4.34 0.66 3.68 1.32 3 2 C3.99 2.99 4.98 3.98 6 5 C3.03 4.505 3.03 4.505 0 4 C0 2.68 0 1.36 0 0 Z " fill="#CCAE3C" transform="translate(95,160)"/>
<path d="M0 0 C1.2065625 0.0309375 1.2065625 0.0309375 2.4375 0.0625 C2.7675 1.0525 3.0975 2.0425 3.4375 3.0625 C2.4475 3.3925 1.4575 3.7225 0.4375 4.0625 C-1.75 2.625 -1.75 2.625 -3.5625 1.0625 C-2.5625 0.0625 -2.5625 0.0625 0 0 Z " fill="#D9CB86" transform="translate(145.5625,132.9375)"/>
<path d="M0 0 C0.33 0 0.66 0 1 0 C0.67 2.97 0.34 5.94 0 9 C-0.66 9 -1.32 9 -2 9 C-1.125 1.125 -1.125 1.125 0 0 Z " fill="#CDB453" transform="translate(118,123)"/>
<path d="M0 0 C0.66 0 1.32 0 2 0 C2.33 2.64 2.66 5.28 3 8 C0.9375 6.25 0.9375 6.25 -1 4 C-0.75 1.75 -0.75 1.75 0 0 Z " fill="#F5F3DB" transform="translate(77,120)"/>
<path d="M0 0 C-1.45255699 3.82946843 -3.42895561 5.12050295 -7 7 C-3.86206897 0 -3.86206897 0 0 0 Z " fill="#F6F3D8" transform="translate(84,102)"/>
<path d="M0 0 C1.258125 0.12375 2.51625 0.2475 3.8125 0.375 C4.87404297 0.47941406 4.87404297 0.47941406 5.95703125 0.5859375 C8 1 8 1 11 3 C8.83032311 3.95465783 7.43671207 4.14401212 5.17578125 3.3984375 C3.4315257 2.64129615 1.71372869 1.82390802 0 1 C0 0.67 0 0.34 0 0 Z " fill="#304D71" transform="translate(147,58)"/>
<path d="M0 0 C1.65 0.33 3.3 0.66 5 1 C2.53721199 3.46278801 0.29323018 3.99771255 -3 5 C-3 4.01 -3 3.02 -3 2 C-2.01 2 -1.02 2 0 2 C0 1.34 0 0.68 0 0 Z " fill="#1B406B" transform="translate(104,43)"/>
<path d="M0 0 C2.05078125 0.03255208 4.1015625 0.06510417 6.15234375 0.09765625 C5.82234375 0.75765625 5.49234375 1.41765625 5.15234375 2.09765625 C4.38921875 2.07703125 3.62609375 2.05640625 2.83984375 2.03515625 C0.05048589 1.96822784 0.05048589 1.96822784 -2.84765625 3.09765625 C-3.17765625 3.75765625 -3.50765625 4.41765625 -3.84765625 5.09765625 C-2.72914438 0.14424653 -2.72914438 0.14424653 0 0 Z " fill="#E9DC98" transform="translate(122.84765625,91.90234375)"/>
</svg>
